<?xml version="1.0" encoding="UTF-8"?>
<svg version="1.1" xmlns="http://www.w3.org/2000/svg" width="32" height="32">
<path d="M0 0 C4.8846525 2.26787438 7.73212562 5.1153475 10 10 C10.75381535 15.5997712 10.77303575 20.33499991 8.375 25.5 C3.80134327 30.3143755 0.6912538 32.25156236 -6 32.5 C-12.6912538 32.25156236 -15.80134327 30.3143755 -20.375 25.5 C-22.77303575 20.33499991 -22.75381535 15.5997712 -22 10 C-17.52212837 0.3553534 -9.85292056 -1.32635469 0 0 Z " fill="#FDFDFB" transform="translate(22,0)"/>
<path d="M0 0 C0.66 0 1.32 0 2 0 C3.40234375 1.8984375 3.40234375 1.8984375 4.9375 4.375 C6.86587629 7.48210246 7.89723073 8.93148715 11 11 C12.32 14.3 13.64 17.6 15 21 C6.09 21 -2.82 21 -12 21 C-13 19 -13 19 -12.44140625 16.8359375 C-12.00634766 15.61777344 -12.00634766 15.61777344 -11.5625 14.375 C-11.27503906 13.55773438 -10.98757812 12.74046875 -10.69140625 11.8984375 C-10.46324219 11.27195312 -10.23507812 10.64546875 -10 10 C-8.68 10 -7.36 10 -6 10 C-5.7525 9.278125 -5.505 8.55625 -5.25 7.8125 C-3.87730408 4.72393418 -2.27646704 2.48988582 0 0 Z " fill="#74A44A" transform="translate(15,3)"/>
<path d="M0 0 C0.66 0 1.32 0 2 0 C2.8358854 1.47772598 3.66864256 2.95722189 4.5 4.4375 C4.9640625 5.26121094 5.428125 6.08492187 5.90625 6.93359375 C7 9 7 9 7 10 C2.71 10 -1.58 10 -6 10 C-1.125 1.125 -1.125 1.125 0 0 Z " fill="#E6D8A9" transform="translate(15,10)"/>
<path d="M0 0 C0.99 0 1.98 0 3 0 C2.67 0.99 2.34 1.98 2 3 C4.43757413 3.02698422 6.87484915 3.04683099 9.3125 3.0625 C10.00279297 3.07087891 10.69308594 3.07925781 11.40429688 3.08789062 C14.5483025 3.10307906 16.99420019 3.00193327 20 2 C20.66 3.32 21.32 4.64 22 6 C13.75 6 5.5 6 -3 6 C-1 1 -1 1 0 0 Z " fill="#0D6C1F" transform="translate(7,17)"/>
<path d="M0 0 C1.875 1.375 1.875 1.375 2.75 3.875 C2.79125 4.7 2.8325 5.525 2.875 6.375 C0.875 8.375 0.875 8.375 -3.0390625 8.5703125 C-4.60949351 8.55700376 -6.17986221 8.53313602 -7.75 8.5 C-8.55179688 8.49097656 -9.35359375 8.48195313 -10.1796875 8.47265625 C-12.16158523 8.44906223 -14.14332981 8.41319065 -16.125 8.375 C-16.125 8.045 -16.125 7.715 -16.125 7.375 C-9.69 6.88 -9.69 6.88 -3.125 6.375 C-3.785 4.395 -4.445 2.415 -5.125 0.375 C-2.125 -0.625 -2.125 -0.625 0 0 Z " fill="#89A739" transform="translate(24.125,12.625)"/>
<path d="M0 0 C5.57142857 5.14285714 5.57142857 5.14285714 6 9 C4.35 8.67 2.7 8.34 1 8 C1 7.34 1 6.68 1 6 C-0.65 7.32 -2.3 8.64 -4 10 C-4.66 9.34 -5.32 8.68 -6 8 C-4.02 5.36 -2.04 2.72 0 0 Z " fill="#157325" transform="translate(16,4)"/>
<path d="M0 0 C1.9375 0.3125 1.9375 0.3125 4 1 C4.33 1.99 4.66 2.98 5 4 C-1.6 4 -8.2 4 -15 4 C-15 3.67 -15 3.34 -15 3 C-9.72 3 -4.44 3 1 3 C0.67 2.01 0.34 1.02 0 0 Z " fill="#03651B" transform="translate(24,19)"/>
<path d="M0 0 C0.165 0.639375 0.33 1.27875 0.5 1.9375 C1.781786 4.16119241 1.781786 4.16119241 3.9140625 4.48828125 C5.93575155 4.7275978 7.96841939 4.86893028 10 5 C10 5.33 10 5.66 10 6 C5.71 6 1.42 6 -3 6 C-2.01 4.02 -1.02 2.04 0 0 Z " fill="#F6F5EB" transform="translate(12,14)"/>
</svg>
